<svg id="visual" viewBox="0 0 900 600" width="900" height="600" xmlns="http://www.w3.org/2000/svg" xmlns:xlink="http://www.w3.org/1999/xlink" version="1.1"><g transform="translate(496.7137378037569 271.7045087154308)"><path d="M137.9 -189.3C185.3 -155.4 234.8 -123.9 249.3 -80.7C263.8 -37.5 243.2 17.4 223.1 70.4C203 123.4 183.5 174.6 146.4 221.4C109.3 268.1 54.7 310.6 -3.2 315C-61.1 319.5 -122.3 285.9 -160.1 239.4C-198 192.9 -212.7 133.4 -253.4 68.1C-294.2 2.9 -361.1 -68.1 -345.2 -110.7C-329.4 -153.4 -230.8 -167.7 -159.5 -193.9C-88.2 -220 -44.1 -258 0.6 -258.8C45.3 -259.6 90.5 -223.3 137.9 -189.3" fill="#ffdd7b"></path></g></svg>