<svg id="visual" viewBox="0 0 900 600" width="900" height="600" xmlns="http://www.w3.org/2000/svg" xmlns:xlink="http://www.w3.org/1999/xlink" version="1.1"><rect x="0" y="0" width="900" height="600" fill="#c3d3e1"></rect><path d="M0 250L21.5 229.5C43 209 86 168 128.8 153.7C171.7 139.3 214.3 151.7 257.2 166.5C300 181.3 343 198.7 385.8 189.2C428.7 179.7 471.3 143.3 514.2 122.8C557 102.3 600 97.7 642.8 112.2C685.7 126.7 728.3 160.3 771.2 158.5C814 156.7 857 119.3 878.5 100.7L900 82L900 601L878.5 601C857 601 814 601 771.2 601C728.3 601 685.7 601 642.8 601C600 601 557 601 514.2 601C471.3 601 428.7 601 385.8 601C343 601 300 601 257.2 601C214.3 601 171.7 601 128.8 601C86 601 43 601 21.5 601L0 601Z" fill="#faf7db"></path><path d="M0 188L21.5 184.8C43 181.7 86 175.3 128.8 195.8C171.7 216.3 214.3 263.7 257.2 271.5C300 279.3 343 247.7 385.8 247.7C428.7 247.7 471.3 279.3 514.2 274.5C557 269.7 600 228.3 642.8 218.7C685.7 209 728.3 231 771.2 246.7C814 262.3 857 271.7 878.5 276.3L900 281L900 601L878.5 601C857 601 814 601 771.2 601C728.3 601 685.7 601 642.8 601C600 601 557 601 514.2 601C471.3 601 428.7 601 385.8 601C343 601 300 601 257.2 601C214.3 601 171.7 601 128.8 601C86 601 43 601 21.5 601L0 601Z" fill="#f9f1c3"></path><path d="M0 264L21.5 265.2C43 266.3 86 268.7 128.8 287.2C171.7 305.7 214.3 340.3 257.2 335.7C300 331 343 287 385.8 270.7C428.7 254.3 471.3 265.7 514.2 283.2C557 300.7 600 324.3 642.8 319.5C685.7 314.7 728.3 281.3 771.2 284.8C814 288.3 857 328.7 878.5 348.8L900 369L900 601L878.5 601C857 601 814 601 771.2 601C728.3 601 685.7 601 642.8 601C600 601 557 601 514.2 601C471.3 601 428.7 601 385.8 601C343 601 300 601 257.2 601C214.3 601 171.7 601 128.8 601C86 601 43 601 21.5 601L0 601Z" fill="#faebab"></path><path d="M0 410L21.5 409.3C43 408.7 86 407.3 128.8 409.5C171.7 411.7 214.3 417.3 257.2 419.8C300 422.3 343 421.7 385.8 421.3C428.7 421 471.3 421 514.2 407.8C557 394.7 600 368.3 642.8 373.2C685.7 378 728.3 414 771.2 428.2C814 442.3 857 434.7 878.5 430.8L900 427L900 601L878.5 601C857 601 814 601 771.2 601C728.3 601 685.7 601 642.8 601C600 601 557 601 514.2 601C471.3 601 428.7 601 385.8 601C343 601 300 601 257.2 601C214.3 601 171.7 601 128.8 601C86 601 43 601 21.5 601L0 601Z" fill="#fce493"></path><path d="M0 449L21.5 464C43 479 86 509 128.8 523.7C171.7 538.3 214.3 537.7 257.2 541.8C300 546 343 555 385.8 560.2C428.7 565.3 471.3 566.7 514.2 555.7C557 544.7 600 521.3 642.8 516C685.7 510.7 728.3 523.3 771.2 535C814 546.7 857 557.3 878.5 562.7L900 568L900 601L878.5 601C857 601 814 601 771.2 601C728.3 601 685.7 601 642.8 601C600 601 557 601 514.2 601C471.3 601 428.7 601 385.8 601C343 601 300 601 257.2 601C214.3 601 171.7 601 128.8 601C86 601 43 601 21.5 601L0 601Z" fill="#ffdd7b"></path></svg>