<svg id="visual" viewBox="0 0 900 600" width="900" height="600" xmlns="http://www.w3.org/2000/svg" xmlns:xlink="http://www.w3.org/1999/xlink" version="1.1"><path d="M0 79L30 85C60 91 120 103 180 104C240 105 300 95 360 91C420 87 480 89 540 89C600 89 660 87 720 85C780 83 840 81 870 80L900 79L900 0L870 0C840 0 780 0 720 0C660 0 600 0 540 0C480 0 420 0 360 0C300 0 240 0 180 0C120 0 60 0 30 0L0 0Z" fill="#4c3203"></path><path d="M0 247L30 261C60 275 120 303 180 320C240 337 300 343 360 335C420 327 480 305 540 300C600 295 660 307 720 304C780 301 840 283 870 274L900 265L900 77L870 78C840 79 780 81 720 83C660 85 600 87 540 87C480 87 420 85 360 89C300 93 240 103 180 102C120 101 60 89 30 83L0 77Z" fill="#d1a139"></path><path d="M0 439L30 452C60 465 120 491 180 500C240 509 300 501 360 491C420 481 480 469 540 472C600 475 660 493 720 501C780 509 840 507 870 506L900 505L900 263L870 272C840 281 780 299 720 302C660 305 600 293 540 298C480 303 420 325 360 333C300 341 240 335 180 318C120 301 60 273 30 259L0 245Z" fill="#d1a139"></path><path d="M0 601L30 601C60 601 120 601 180 601C240 601 300 601 360 601C420 601 480 601 540 601C600 601 660 601 720 601C780 601 840 601 870 601L900 601L900 503L870 504C840 505 780 507 720 499C660 491 600 473 540 470C480 467 420 479 360 489C300 499 240 507 180 498C120 489 60 463 30 450L0 437Z" fill="#4c3203"></path></svg>